<svg xmlns="http://www.w3.org/2000/svg" version="1.1" height="592" width="616" viewBox="0 0 616 592" class="aasvg">
<style>
:root { color-scheme: light dark; --aasvg-b: light-dark(black, white); --aasvg-w: light-dark(white, black); }
* { fill: none; stroke: var(--aasvg-b); stroke-linecap: round; }
.dashed { stroke-dasharray: 3,6; }
text { font: 13px monospace; text-anchor: middle; fill: var(--aasvg-b); stroke: none; }
</style>
<text class="ascii" display="none"><![CDATA[
                                                  Conversion
                                 +--------------+ Reports    +-------------+
                                 |              +===========>|             |
                                 |  Advertiser  |            | Aggregation |
                                 |  Server      |            | Service     |
                                 |              |<-----------+             |
                                 +--------------+ Histogram  +-------------+
                                           ^ ^ ^
                                Conversion | | |
                                   Reports | |  '-----------.
                                           |  '-----------.  |
                                           |               | |
        +-------------+-+-+      +---------+----+          | |
        |             | | |      |              |          Other Users
        |  Publisher  | | |      |  Advertiser  |
        |  Site(s)    | | |      |  Site        |
        |             | | |      |              |
        +------+------+-+-+      +-----+--------+
               |                       |   ^
saveImpression |     measureConversion |   | Conversion
               |                       |   | Report
               v                       v   |
     +-------------------------------------+---------+
     |                                               |
     |           Private Attribution APIs            |
     |                                               |
     +-----------------------------------------------+
                             ^
                             |
                             v
                       .-----------.
                      |             |
                      |  Impression |
                      |    Store    |
                      |             |
                       '-----------'
]]></text>
<path d="M 48,368L 48,432"/>
<path d="M 72,208L 72,288"/>
<path d="M 128,288L 128,366.81765"/>
<path d="M 184,208L 184,288"/>
<path d="M 184,512L 184,560"/>
<path d="M 200,208L 200,288"/>
<path d="M 216,208L 216,288"/>
<path d="M 240,433.18235L 240,494.81765"/>
<path d="M 272,32L 272,112"/>
<path d="M 272,208L 272,288"/>
<path d="M 296,512L 296,560"/>
<path d="M 320,288L 320,366.81765"/>
<path d="M 352,113.18235L 352,208"/>
<path d="M 352,289.18235L 352,368"/>
<path d="M 368,113.18235L 368,160"/>
<path d="M 384,113.18235L 384,144"/>
<path d="M 392,32L 392,112"/>
<path d="M 392,208L 392,288"/>
<path d="M 432,368L 432,432"/>
<path d="M 480,192L 480,208"/>
<path d="M 496,32L 496,112"/>
<path d="M 496,176L 496,208"/>
<path d="M 608,32L 608,112"/>
<path d="M 272,32L 392,32"/>
<path d="M 496,32L 608,32"/>
<path d="M 392,46L 490.53193,46"/><path d="M 392,50L 490.53193,50"/>
<path d="M 393.18235,96L 496,96"/>
<path d="M 272,112L 392,112"/>
<path d="M 496,112L 608,112"/>
<path d="M 400,160L 480,160"/>
<path d="M 384,176L 464,176"/>
<path d="M 72,208L 216,208"/>
<path d="M 272,208L 392,208"/>
<path d="M 72,288L 216,288"/>
<path d="M 272,288L 392,288"/>
<path d="M 48,368L 432,368"/>
<path d="M 48,432L 432,432"/>
<path d="M 200,496L 280,496"/>
<path d="M 200,576L 280,576"/>
<path d="M 400,160C 391.16936,160 384,152.83064 384,144"/>
<path d="M 480,160C 488.83064,160 496,167.16936 496,176"/>
<path d="M 384,176C 375.16936,176 368,168.83064 368,160"/>
<path d="M 464,176C 472.83064,176 480,183.16936 480,192"/>
<path d="M 200,496C 191.16936,496 184,503.16936 184,512"/>
<path d="M 280,496C 288.83064,496 296,503.16936 296,512"/>
<path d="M 200,576C 191.16936,576 184,568.83064 184,560"/>
<path d="M 280,576C 288.83064,576 296,568.83064 296,560"/>
<path class="arrowhead" d="M 483.78856,42.85309 L 494.81765,48 L 483.78856,53.14691"/>
<path class="arrowhead" d="M 404.21144,101.14691 L 393.18235,96 L 404.21144,90.85309"/>
<path class="arrowhead" d="M 378.85309,124.21144 L 384,113.18235 L 389.14691,124.21144"/>
<path class="arrowhead" d="M 362.85309,124.21144 L 368,113.18235 L 373.14691,124.21144"/>
<path class="arrowhead" d="M 346.85309,300.21144 L 352,289.18235 L 357.14691,300.21144"/>
<path class="arrowhead" d="M 346.85309,124.21144 L 352,113.18235 L 357.14691,124.21144"/>
<path class="arrowhead" d="M 325.14691,355.78856 L 320,366.81765 L 314.85309,355.78856"/>
<path class="arrowhead" d="M 245.14691,483.78856 L 240,494.81765 L 234.85309,483.78856"/>
<path class="arrowhead" d="M 234.85309,444.21144 L 240,433.18235 L 245.14691,444.21144"/>
<path class="arrowhead" d="M 133.14691,355.78856 L 128,366.81765 L 122.85309,355.78856"/>
<g class="text">
<text x="444" y="20">Conversion</text>
<text x="432" y="36">Reports</text>
<text x="332" y="68">Advertiser</text>
<text x="552" y="68">Aggregation</text>
<text x="316" y="84">Server</text>
<text x="536" y="84">Service</text>
<text x="440" y="116">Histogram</text>
<text x="300" y="148">Conversion</text>
<text x="312" y="164">Reports</text>
<text x="520" y="228">Other Users</text>
<text x="128" y="244">Publisher</text>
<text x="332" y="244">Advertiser</text>
<text x="120" y="260">Site(s)</text>
<text x="308" y="260">Site</text>
<text x="60" y="324">saveImpression</text>
<text x="240" y="324">measureConversion</text>
<text x="404" y="324">Conversion</text>
<text x="388" y="340">Report</text>
<text x="236" y="404">Private Attribution APIs</text>
<text x="244" y="532">Impression</text>
<text x="240" y="548">Store</text>
</g>
</svg>
