<svg xmlns="http://www.w3.org/2000/svg" version="1.1" height="272" width="432" viewBox="0 0 432 272" class="aasvg">
<style>
:root { color-scheme: light dark; --aasvg-b: light-dark(black, white); --aasvg-w: light-dark(white, black); }
* { fill: none; stroke: var(--aasvg-b); stroke-linecap: round; }
.dashed { stroke-dasharray: 3,6; }
text { font: 13px monospace; text-anchor: middle; fill: var(--aasvg-b); stroke: none; }
</style>
<text class="ascii" display="none"><![CDATA[
+-------------+            +------------+
|             |            |            |
|    User     +----------->| Advertiser |
|             | Attention  |            |
+-------------+            +-----+------+
      ^                          |
      | Content and              | Money
      | Services                 |
      |                          v
 .----+------.             +------------+
|  Content    |            |            |
| Production  | Investment |            |   Profit,
|     /       |<-----------+  Website   +------->
|  Service    |            |            |   Expenses,
| Improvement |            |            |   etc...
 '-----------'             +------------+
]]></text>
<path d="M 8,16L 8,80"/>
<path d="M 8,176L 8,240"/>
<path d="M 56,81.18235L 56,160"/>
<path d="M 120,16L 120,80"/>
<path d="M 120,176L 120,240"/>
<path d="M 224,16L 224,80"/>
<path d="M 224,160L 224,256"/>
<path d="M 272,80L 272,158.81765"/>
<path d="M 328,16L 328,80"/>
<path d="M 328,160L 328,256"/>
<path d="M 8,16L 120,16"/>
<path d="M 224,16L 328,16"/>
<path d="M 120,48L 222.81765,48"/>
<path d="M 8,80L 120,80"/>
<path d="M 224,80L 328,80"/>
<path d="M 24,160L 104,160"/>
<path d="M 224,160L 328,160"/>
<path d="M 121.18235,208L 224,208"/>
<path d="M 328,208L 398.81765,208"/>
<path d="M 24,256L 104,256"/>
<path d="M 224,256L 328,256"/>
<path d="M 24,160C 15.16936,160 8,167.16936 8,176"/>
<path d="M 104,160C 112.83064,160 120,167.16936 120,176"/>
<path d="M 24,256C 15.16936,256 8,248.83064 8,240"/>
<path d="M 104,256C 112.83064,256 120,248.83064 120,240"/>
<path class="arrowhead" d="M 387.78856,202.85309 L 398.81765,208 L 387.78856,213.14691"/>
<path class="arrowhead" d="M 277.14691,147.78856 L 272,158.81765 L 266.85309,147.78856"/>
<path class="arrowhead" d="M 211.78856,42.85309 L 222.81765,48 L 211.78856,53.14691"/>
<path class="arrowhead" d="M 132.21144,213.14691 L 121.18235,208 L 132.21144,202.85309"/>
<path class="arrowhead" d="M 50.85309,92.21144 L 56,81.18235 L 61.14691,92.21144"/>
<g class="text">
<text x="60" y="52">User</text>
<text x="276" y="52">Advertiser</text>
<text x="168" y="68">Attention</text>
<text x="112" y="116">Content and</text>
<text x="304" y="116">Money</text>
<text x="100" y="132">Services</text>
<text x="56" y="180">Content</text>
<text x="60" y="196">Production</text>
<text x="172" y="196">Investment</text>
<text x="384" y="196">Profit,</text>
<text x="56" y="212">/</text>
<text x="272" y="212">Website</text>
<text x="56" y="228">Service</text>
<text x="392" y="228">Expenses,</text>
<text x="64" y="244">Improvement</text>
<text x="380" y="244">etc...</text>
</g>
</svg>
